<svg width="40" height="40" viewBox="0 0 40 40" fill="none" xmlns="http://www.w3.org/2000/svg">
<g clip-path="url(#clip0_539_4078)">
<path d="M34.1422 5.85781C30.3646 2.08039 25.3422 0 20 0C14.6578 0 9.63539 2.08039 5.85781 5.85781C2.08039 9.63539 0 14.6578 0 20C0 25.3422 2.08039 30.3646 5.85781 34.1422C9.63539 37.9196 14.6578 40 20 40C25.3422 40 30.3646 37.9196 34.1422 34.1422C37.9196 30.3646 40 25.3422 40 20C40 14.6578 37.9196 9.63539 34.1422 5.85781ZM20 37.6562C10.2643 37.6562 2.34375 29.7357 2.34375 20C2.34375 10.2643 10.2643 2.34375 20 2.34375C29.7357 2.34375 37.6562 10.2643 37.6562 20C37.6562 29.7357 29.7357 37.6562 20 37.6562Z" fill="#01485A"/>
<path d="M31.7676 18.8281H8.23242C7.58523 18.8281 7.06055 19.3528 7.06055 20C7.06055 27.1348 12.8652 32.9395 20 32.9395C27.1348 32.9395 32.9395 27.1348 32.9395 20C32.9395 19.3528 32.4148 18.8281 31.7676 18.8281ZM20 30.5957C16.3309 30.5957 13.0916 28.7207 11.1892 25.8789H28.8108C26.9084 28.7207 23.6691 30.5957 20 30.5957ZM29.989 23.5352H10.011C9.74383 22.7826 9.55922 21.9912 9.46867 21.1719H30.5314C30.4408 21.9912 30.2562 22.7826 29.989 23.5352Z" fill="#01485A"/>
<path d="M12.9395 15.2881C13.5866 15.2881 14.1113 14.7634 14.1113 14.1162C14.1113 13.4646 14.6414 12.9346 15.293 12.9346C15.9445 12.9346 16.4746 13.4646 16.4746 14.1162C16.4746 14.7634 16.9993 15.2881 17.6465 15.2881C18.2937 15.2881 18.8184 14.7634 18.8184 14.1162C18.8184 12.1723 17.2369 10.5908 15.293 10.5908C13.3491 10.5908 11.7676 12.1723 11.7676 14.1162C11.7676 14.7634 12.2923 15.2881 12.9395 15.2881Z" fill="#01485A"/>
<path d="M22.3535 15.2881C23.0007 15.2881 23.5254 14.7634 23.5254 14.1162C23.5254 13.4646 24.0555 12.9346 24.707 12.9346C25.3586 12.9346 25.8887 13.4646 25.8887 14.1162C25.8887 14.7634 26.4134 15.2881 27.0605 15.2881C27.7077 15.2881 28.2324 14.7634 28.2324 14.1162C28.2324 12.1723 26.6509 10.5908 24.707 10.5908C22.7631 10.5908 21.1816 12.1723 21.1816 14.1162C21.1816 14.7634 21.7063 15.2881 22.3535 15.2881Z" fill="#01485A"/>
</g>
<defs>
<clipPath id="clip0_539_4078">
<rect width="40" height="40" fill="white"/>
</clipPath>
</defs>
</svg>
