<svg width="112" height="40" viewBox="0 0 112 40" fill="none" xmlns="http://www.w3.org/2000/svg">
<g clip-path="url(#clip0_473_21809)">
<path d="M40.6372 0H0V40H40.6372V0Z" fill="#010204"/>
<path d="M37.6637 2.96289H2.97339V37.037H37.6637V2.96289Z" fill="white"/>
<mask id="mask0_473_21809" style="mask-type:luminance" maskUnits="userSpaceOnUse" x="6" y="4" width="29" height="26">
<path d="M34.1946 4.44434H6.44238V29.1357H34.1946V4.44434Z" fill="white"/>
</mask>
<g mask="url(#mask0_473_21809)">
<path d="M17.8257 4.88184H20.7955V7.46399H17.8257V4.88184Z" fill="#020000"/>
<path d="M17.8257 8.75537H20.7955V16.6415H17.8257V8.75537Z" fill="#020000"/>
<path d="M34.1947 10.0814H28.2905V12.3845H31.2957V12.8032C30.1996 14.7223 26.9824 14.8619 25.9571 12.8032C25.3561 11.6517 25.25 10.2559 25.8511 8.99971C26.7703 6.87117 30.1996 6.62687 31.2957 8.75541H34.1947C33.5584 5.02173 28.8915 4.1145 26.0278 5.23112C22.846 6.34776 21.6792 10.2559 22.846 13.187C23.7298 15.49 26.0632 16.816 28.538 16.7811C31.2603 16.816 34.0533 15.0713 34.1947 12.3845V10.0814Z" fill="#020000"/>
<path d="M13.371 8.75526C13.3356 7.53398 12.381 7.2199 12.381 7.2199C11.9214 7.08035 11.4265 7.08035 10.9669 7.25482C10.7547 7.34786 10.5779 7.47581 10.4366 7.63867C10.1183 7.95269 10.1183 8.54588 10.4719 8.82504C10.6369 8.98791 10.8608 9.12746 11.1436 9.24381C11.4265 9.3601 11.7329 9.4764 12.0628 9.59274C12.5342 9.7323 13.0174 9.89516 13.5124 10.0812C14.0073 10.2441 14.467 10.4534 14.8912 10.7093C15.3154 10.9885 15.6572 11.3258 15.9165 11.7213C16.4821 12.6285 16.4115 14.129 15.8104 15.0363C15.4804 15.5713 14.9855 15.99 14.3255 16.2924C13.0527 16.8856 10.8608 16.9554 9.48198 16.3971C9.48198 16.3971 6.75968 15.6992 6.79502 12.3843H9.69408V12.6634C9.69408 14.3035 11.1436 14.4082 11.5679 14.4082C12.11 14.4082 12.5342 14.3035 12.8406 14.0941C13.3356 13.7451 13.4063 12.9426 12.9821 12.5587C12.8171 12.3959 12.5814 12.2563 12.275 12.14C11.945 12.0237 11.5796 11.8958 11.179 11.7562C10.7076 11.6399 10.2362 11.5003 9.7648 11.3374C9.317 11.1746 8.89274 10.9652 8.49207 10.7093C7.60821 10.151 7.14856 9.34845 7.18395 8.23186C7.18395 7.48746 7.37251 6.85936 7.7496 6.34756C8.15027 5.83581 8.68058 5.4403 9.34054 5.16114C10.5426 4.67264 12.4518 4.63775 13.6892 5.12628C14.3019 5.33561 14.8087 5.66129 15.2094 6.10331C15.2094 6.10331 16.0932 6.87097 16.164 8.75526H13.371Z" fill="#020000"/>
<path d="M33.3877 19.1216H27.9729L31.4599 28.6417H33.3877V19.1216Z" fill="#FF0000"/>
<path d="M12.7203 25.5908L10.0837 19.1216H7.24878V28.6417H9.63012V23.1895L11.7564 28.6417H13.6842L15.8104 23.1895V28.6417H18.1918V19.1216H15.3568L12.7203 25.5908Z" fill="#020000"/>
<path fill-rule="evenodd" clip-rule="evenodd" d="M26.357 19.1216L29.8723 28.6417H27.3776L26.6972 26.749H22.1895L21.5375 28.6417H19.0427L22.5581 19.1216H26.357ZM25.9884 24.7715L24.7127 21.1838H24.174L22.8983 24.7715H25.9884Z" fill="#020000"/>
</g>
<path d="M9.91808 34.6877H9.41602L10.8681 30.7471H11.3624L12.8145 34.6877H12.3124L11.1307 31.3705H11.0998L9.91808 34.6877ZM10.1034 33.1484H12.1271V33.5717H10.1034V33.1484Z" fill="#020001"/>
<path d="M13.8406 34.6877L12.7593 30.7471H13.2459L14.0724 33.9566H14.111L14.9528 30.7471H15.4935L16.3354 33.9566H16.374L17.2005 30.7471H17.687L16.6057 34.6877H16.1114L15.2386 31.5475H15.2077L14.335 34.6877H13.8406Z" fill="#020001"/>
<path d="M18.138 34.6877H17.636L19.0881 30.7471H19.5824L21.0344 34.6877H20.5324L19.3507 31.3705H19.3198L18.138 34.6877ZM18.3234 33.1484H20.347V33.5717H18.3234V33.1484Z" fill="#020001"/>
<path d="M21.6504 34.6877V30.7471H22.9866C23.2955 30.7471 23.5491 30.7997 23.7474 30.9048C23.9456 31.0087 24.0924 31.1518 24.1876 31.3339C24.2829 31.5161 24.3306 31.7233 24.3306 31.9555C24.3306 32.1876 24.2829 32.3935 24.1876 32.5731C24.0924 32.7526 23.9463 32.8938 23.7493 32.9964C23.5524 33.0977 23.3007 33.1484 22.9943 33.1484H21.913V32.7174H22.9789C23.19 32.7174 23.3599 32.6866 23.4886 32.625C23.6187 32.5635 23.7126 32.4763 23.7706 32.3634C23.8298 32.2492 23.8594 32.1132 23.8594 31.9555C23.8594 31.7977 23.8298 31.6598 23.7706 31.5417C23.7113 31.4238 23.6167 31.3327 23.4867 31.2686C23.3567 31.2031 23.1848 31.1704 22.9711 31.1704H22.1293V34.6877H21.6504ZM23.5118 32.9175L24.485 34.6877H23.9289L22.9711 32.9175H23.5118Z" fill="#020001"/>
<path d="M26.3488 34.6877H25.1284V30.7471H26.4028C26.7865 30.7471 27.1147 30.826 27.3876 30.9838C27.6606 31.1403 27.8697 31.3654 28.0152 31.6591C28.1606 31.9516 28.2334 32.3018 28.2334 32.7097C28.2334 33.1202 28.16 33.4736 28.0133 33.7699C27.8665 34.0649 27.6528 34.292 27.3722 34.451C27.0915 34.6088 26.7504 34.6877 26.3488 34.6877ZM25.6073 34.2644H26.3179C26.6449 34.2644 26.9159 34.2015 27.1308 34.0758C27.3458 33.9501 27.506 33.7712 27.6116 33.539C27.7172 33.3068 27.7699 33.0304 27.7699 32.7097C27.7699 32.3916 27.7178 32.1177 27.6135 31.8881C27.5093 31.6572 27.3535 31.4802 27.1463 31.357C26.939 31.2326 26.6809 31.1704 26.372 31.1704H25.6073V34.2644Z" fill="#020001"/>
<path d="M31.1993 31.7319C31.1761 31.5369 31.0821 31.3856 30.9173 31.2778C30.7526 31.1701 30.5505 31.1162 30.3111 31.1162C30.136 31.1162 29.9828 31.1444 29.8515 31.2009C29.7215 31.2573 29.6198 31.3349 29.5464 31.4337C29.4743 31.5325 29.4382 31.6447 29.4382 31.7704C29.4382 31.8756 29.4633 31.966 29.5136 32.0417C29.5651 32.1161 29.6307 32.1783 29.7105 32.2283C29.7903 32.2771 29.874 32.3175 29.9615 32.3496C30.049 32.3803 30.1295 32.4054 30.2029 32.4246L30.6045 32.5324C30.7075 32.5593 30.8221 32.5965 30.9482 32.6439C31.0757 32.6914 31.1973 32.7562 31.3132 32.8383C31.4303 32.9191 31.5269 33.023 31.6028 33.15C31.6788 33.277 31.7168 33.4329 31.7168 33.6176C31.7168 33.8305 31.6608 34.0229 31.5488 34.1948C31.438 34.3667 31.2758 34.5033 31.0621 34.6046C30.8497 34.706 30.5916 34.7566 30.2879 34.7566C30.0046 34.7566 29.7594 34.7111 29.5522 34.62C29.3462 34.529 29.184 34.402 29.0656 34.239C28.9484 34.0761 28.8821 33.8869 28.8667 33.6714H29.361C29.3739 33.8202 29.4241 33.9434 29.5116 34.0409C29.6004 34.1371 29.7124 34.2089 29.8476 34.2564C29.9841 34.3025 30.1308 34.3257 30.2879 34.3257C30.4707 34.3257 30.6348 34.2961 30.7803 34.2371C30.9257 34.1768 31.0409 34.0935 31.1259 33.987C31.2109 33.8792 31.2533 33.7535 31.2533 33.6099C31.2533 33.479 31.2166 33.3726 31.1433 33.2905C31.0699 33.2084 30.9733 33.1417 30.8536 33.0904C30.7339 33.039 30.6045 32.9942 30.4655 32.9557L29.9789 32.8171C29.67 32.7286 29.4254 32.6023 29.2452 32.4381C29.0649 32.2739 28.9748 32.059 28.9748 31.7935C28.9748 31.5729 29.0347 31.3804 29.1544 31.2163C29.2754 31.0508 29.4376 30.9225 29.641 30.8314C29.8457 30.7391 30.0742 30.6929 30.3265 30.6929C30.5813 30.6929 30.8079 30.7385 31.0061 30.8295C31.2044 30.9193 31.3615 31.0425 31.4773 31.1989C31.5944 31.3554 31.6562 31.5331 31.6627 31.7319H31.1993Z" fill="#020001"/>
<path d="M48.6055 14.3637V12.7379L51.7216 10.1691C51.9283 9.99842 52.1052 9.83857 52.2519 9.68953C52.4015 9.53778 52.516 9.38198 52.5948 9.22213C52.6761 9.06223 52.7172 8.88474 52.7172 8.68963C52.7172 8.47561 52.6706 8.2927 52.5785 8.14094C52.4888 7.98919 52.3634 7.87269 52.2033 7.79141C52.0427 7.70741 51.8579 7.66539 51.6483 7.66539C51.4391 7.66539 51.2543 7.70741 51.0937 7.79141C50.9361 7.87541 50.8137 7.99867 50.7265 8.16129C50.6398 8.32385 50.5962 8.52163 50.5962 8.75467H48.4424C48.4424 8.16939 48.5743 7.66539 48.8381 7.24267C49.1018 6.81995 49.4744 6.49482 49.9559 6.26721C50.4371 6.03961 51.001 5.92578 51.6483 5.92578C52.3173 5.92578 52.8966 6.03279 53.3862 6.24687C53.8783 6.45823 54.2575 6.7563 54.5241 7.14109C54.7932 7.52583 54.928 7.97699 54.928 8.49457C54.928 8.81432 54.8611 9.13269 54.7278 9.44973C54.5949 9.76405 54.3556 10.1123 54.0102 10.4943C53.6648 10.8763 53.1741 11.3316 52.5378 11.86L51.7543 12.5103V12.5591H55.0177V14.3637H48.6055Z" fill="#020000"/>
<path d="M59.6698 14.5913C58.9111 14.5886 58.2559 14.4138 57.7038 14.067C57.1518 13.7202 56.7261 13.2203 56.4272 12.5672C56.1279 11.9142 55.9797 11.1311 55.9822 10.2179C55.9852 9.30203 56.1348 8.52435 56.4312 7.88489C56.73 7.24539 57.1542 6.75902 57.7038 6.42573C58.2559 6.09245 58.9111 5.92578 59.6698 5.92578C60.4285 5.92578 61.0837 6.09378 61.6357 6.42978C62.1878 6.76307 62.6135 7.24944 62.9123 7.88894C63.2117 8.52845 63.3598 9.30474 63.3569 10.2179C63.3569 11.1365 63.2077 11.9223 62.9084 12.5753C62.609 13.2283 62.1838 13.7283 61.6318 14.0752C61.0822 14.4193 60.4285 14.5913 59.6698 14.5913ZM59.6698 12.7542C60.0613 12.7542 60.3819 12.551 60.6322 12.1445C60.8854 11.7353 61.0103 11.0931 61.0078 10.2179C61.0078 9.64618 60.9504 9.17877 60.8364 8.81566C60.7219 8.45255 60.5643 8.1843 60.3631 8.01087C60.1619 7.83477 59.931 7.74667 59.6698 7.74667C59.2783 7.74667 58.9586 7.9445 58.7113 8.3401C58.4636 8.73571 58.3372 9.36163 58.3317 10.2179C58.3293 10.8005 58.3848 11.2801 58.4992 11.6567C58.6132 12.0307 58.7708 12.3071 58.972 12.4859C59.1762 12.6647 59.4086 12.7542 59.6698 12.7542Z" fill="#020000"/>
<path d="M64.4218 14.3637V12.7379L67.538 10.1691C67.7447 9.99842 67.9211 9.83857 68.0683 9.68953C68.2179 9.53778 68.3319 9.38198 68.4107 9.22213C68.4925 9.06223 68.5331 8.88474 68.5331 8.68963C68.5331 8.47561 68.487 8.2927 68.3944 8.14094C68.3047 7.98919 68.1798 7.87269 68.0192 7.79141C67.8587 7.70741 67.6738 7.66539 67.4647 7.66539C67.255 7.66539 67.0702 7.70741 66.9096 7.79141C66.752 7.87541 66.6296 7.99867 66.5429 8.16129C66.4557 8.32385 66.4121 8.52163 66.4121 8.75467H64.2583C64.2583 8.16939 64.3901 7.66539 64.6543 7.24267C64.9179 6.81995 65.2906 6.49482 65.7718 6.26721C66.253 6.03961 66.8175 5.92578 67.4647 5.92578C68.1332 5.92578 68.7125 6.03279 69.2022 6.24687C69.6943 6.45823 70.0739 6.7563 70.34 7.14109C70.6091 7.52583 70.7439 7.97699 70.7439 8.49457C70.7439 8.81432 70.6775 9.13269 70.5442 9.44973C70.4109 9.76405 70.1715 10.1123 69.8261 10.4943C69.4807 10.8763 68.99 11.3316 68.3537 11.86L67.5707 12.5103V12.5591H70.8336V14.3637H64.4218Z" fill="#020000"/>
<path d="M71.5864 13.063V11.3072L74.9474 6.03955H76.5461V8.38069H75.6328L73.8215 11.2421V11.3072H78.7817V13.063H71.5864ZM75.6487 14.3636V12.5265L75.6977 11.7624V6.03955H77.8188V14.3636H75.6487Z" fill="#020000"/>
<path d="M82.0049 14.3636V6.03955H85.627C86.2634 6.03955 86.7976 6.12488 87.2297 6.2956C87.6648 6.46632 87.9924 6.70745 88.213 7.01906C88.436 7.33071 88.5475 7.69787 88.5475 8.12059C88.5475 8.42676 88.4796 8.70587 88.3433 8.95787C88.21 9.20987 88.0227 9.42123 87.7803 9.5919C87.5385 9.7599 87.2555 9.87644 86.9319 9.94148V10.0228C87.2912 10.0363 87.6173 10.1271 87.9111 10.2951C88.2045 10.4604 88.4384 10.6893 88.6129 10.982C88.7868 11.2719 88.8736 11.6133 88.8736 12.0063C88.8736 12.4615 88.7541 12.8666 88.5148 13.2215C88.2784 13.5765 87.9409 13.8556 87.5033 14.0588C87.0652 14.2621 86.5434 14.3636 85.9368 14.3636H82.0049ZM84.2726 12.559H85.3332C85.7138 12.559 85.9992 12.4886 86.19 12.3476C86.3803 12.204 86.4755 11.9927 86.4755 11.7136C86.4755 11.5185 86.4304 11.3532 86.3407 11.2177C86.251 11.0823 86.1231 10.9793 85.9571 10.9088C85.7941 10.8384 85.5968 10.8032 85.3659 10.8032H84.2726V12.559ZM84.2726 9.40493H85.2028C85.4011 9.40493 85.5765 9.37377 85.7286 9.31145C85.8813 9.24913 85.9992 9.15975 86.084 9.04321C86.1707 8.924 86.2143 8.77901 86.2143 8.60829C86.2143 8.35091 86.1216 8.15441 85.9368 8.01896C85.7519 7.88074 85.518 7.81165 85.2355 7.81165H84.2726V9.40493Z" fill="#020000"/>
<path d="M89.6772 14.3636V6.03955H95.6975V7.86044H91.945V9.29116H95.3878V11.112H91.945V12.5428H95.6811V14.3636H89.6772Z" fill="#020000"/>
<path d="M101.325 8.64089C101.304 8.36993 101.202 8.15857 101.019 8.00682C100.84 7.85506 100.567 7.77921 100.2 7.77921C99.9659 7.77921 99.7741 7.80766 99.6244 7.86455C99.4778 7.91877 99.3687 7.99329 99.2983 8.0881C99.2275 8.18297 99.1908 8.29131 99.1883 8.41329C99.1829 8.51353 99.2002 8.6043 99.2414 8.68558C99.2845 8.76415 99.3529 8.83595 99.445 8.90099C99.5377 8.96331 99.6557 9.02025 99.7999 9.07171C99.9441 9.12321 100.116 9.16929 100.314 9.20993L100.999 9.35625C101.462 9.45378 101.857 9.58247 102.186 9.74237C102.515 9.90223 102.784 10.0906 102.994 10.3073C103.203 10.5214 103.357 10.7626 103.455 11.0308C103.555 11.2991 103.607 11.5917 103.61 11.9087C103.607 12.4561 103.47 12.9195 103.198 13.2988C102.926 13.6782 102.537 13.9668 102.031 14.1645C101.528 14.3624 100.923 14.4613 100.216 14.4613C99.4901 14.4613 98.8563 14.3542 98.3151 14.1402C97.7769 13.9261 97.3582 13.5969 97.0588 13.1525C96.7625 12.7054 96.6128 12.1336 96.6104 11.4373H98.7641C98.7775 11.692 98.8414 11.906 98.9554 12.0795C99.0699 12.2529 99.2305 12.3843 99.4371 12.4737C99.6462 12.5632 99.895 12.6079 100.183 12.6079C100.425 12.6079 100.628 12.578 100.791 12.5184C100.954 12.4588 101.078 12.3762 101.162 12.2705C101.246 12.1648 101.29 12.0443 101.293 11.9087C101.29 11.7814 101.248 11.6703 101.166 11.5755C101.087 11.4779 100.957 11.3912 100.775 11.3153C100.593 11.2367 100.346 11.1636 100.037 11.0959L99.2042 10.917C98.4648 10.7571 97.8815 10.4902 97.4548 10.1163C97.0306 9.73966 96.8195 9.22618 96.8225 8.57586C96.8195 8.04746 96.9612 7.58544 97.2467 7.18983C97.5346 6.79151 97.933 6.48129 98.4415 6.25907C98.9529 6.03689 99.5387 5.92578 100.2 5.92578C100.874 5.92578 101.458 6.03823 101.95 6.26311C102.442 6.48805 102.821 6.80509 103.088 7.21423C103.357 7.62069 103.493 8.09625 103.495 8.64089H101.325Z" fill="#020000"/>
<path d="M104.244 7.86044V6.03955H111.504V7.86044H108.992V14.3636H106.757V7.86044H104.244Z" fill="#020000"/>
<path d="M52.1961 19.1329C52.1772 18.8991 52.089 18.7167 51.9319 18.5858C51.7773 18.4548 51.5414 18.3893 51.2247 18.3893C51.0225 18.3893 50.8575 18.4139 50.7282 18.463C50.6018 18.5098 50.5076 18.5741 50.4467 18.6559C50.3857 18.7377 50.354 18.8313 50.3515 18.9365C50.3471 19.023 50.3624 19.1013 50.3976 19.1715C50.4348 19.2393 50.4938 19.3012 50.5736 19.3574C50.6533 19.4112 50.7554 19.4603 50.8798 19.5047C51.0042 19.5491 51.1519 19.5889 51.3229 19.6239L51.9146 19.7502C52.3135 19.8344 52.655 19.9454 52.9384 20.0834C53.2224 20.2213 53.4548 20.3839 53.6357 20.5709C53.8161 20.7556 53.9489 20.9637 54.0332 21.1952C54.1199 21.4267 54.1645 21.6792 54.167 21.9528C54.1645 22.4251 54.046 22.8249 53.8116 23.1523C53.5767 23.4796 53.2412 23.7287 52.8051 23.8993C52.371 24.07 51.8487 24.1554 51.2386 24.1554C50.6122 24.1554 50.0656 24.063 49.5983 23.8783C49.1339 23.6935 48.7725 23.4095 48.5144 23.026C48.2586 22.6402 48.1296 22.1468 48.1272 21.5459H49.9858C49.9972 21.7657 50.0527 21.9504 50.1508 22.1001C50.2494 22.2497 50.3882 22.3631 50.5666 22.4403C50.747 22.5174 50.9616 22.556 51.2104 22.556C51.4195 22.556 51.5939 22.5303 51.7347 22.4789C51.8759 22.4274 51.9825 22.3561 52.0553 22.2649C52.1282 22.1737 52.1653 22.0697 52.1678 21.9528C52.1653 21.8429 52.1292 21.747 52.0588 21.6652C51.9909 21.581 51.8779 21.5062 51.7208 21.4407C51.5637 21.3729 51.3511 21.3098 51.084 21.2513L50.3659 21.097C49.7276 20.959 49.2242 20.7288 48.8558 20.406C48.4898 20.0811 48.3079 19.6379 48.3103 19.0768C48.3079 18.6209 48.4299 18.2222 48.6763 17.8808C48.925 17.5371 49.2688 17.2693 49.7078 17.0776C50.1488 16.8859 50.6543 16.79 51.2247 16.79C51.8065 16.79 52.3101 16.8871 52.7348 17.0812C53.1595 17.2752 53.4865 17.5488 53.7165 17.9018C53.9489 18.2526 54.0664 18.6629 54.0683 19.1329H52.1961Z" fill="#020000"/>
<path d="M54.9111 24.0711V16.8882H58.0228C58.5576 16.8882 59.0259 16.9934 59.4268 17.2038C59.8282 17.4143 60.1404 17.7101 60.3635 18.0911C60.586 18.4723 60.6975 18.9177 60.6975 19.4274C60.6975 19.9419 60.5825 20.3873 60.3525 20.7637C60.1251 21.1402 59.8049 21.4301 59.3916 21.6335C58.9813 21.837 58.5016 21.9387 57.9525 21.9387H56.0941V20.4235H57.558C57.7879 20.4235 57.9842 20.3838 58.1458 20.3043C58.3103 20.2225 58.4357 20.1067 58.5224 19.9571C58.6116 19.8074 58.6562 19.6309 58.6562 19.4274C58.6562 19.2217 58.6116 19.0463 58.5224 18.9014C58.4357 18.7541 58.3103 18.6418 58.1458 18.5647C57.9842 18.4852 57.7879 18.4454 57.558 18.4454H56.8682V24.0711H54.9111Z" fill="#020000"/>
<path d="M68.3988 20.4797C68.3988 21.2794 68.2427 21.9539 67.931 22.5034C67.6188 23.0506 67.1976 23.4656 66.6673 23.7485C66.137 24.0291 65.5458 24.1694 64.8932 24.1694C64.2365 24.1694 63.6428 24.0279 63.1125 23.745C62.5843 23.4598 62.1645 23.0436 61.8523 22.4964C61.5426 21.9469 61.3875 21.2747 61.3875 20.4797C61.3875 19.6801 61.5426 19.0066 61.8523 18.4595C62.1645 17.91 62.5843 17.495 63.1125 17.2144C63.6428 16.9315 64.2365 16.79 64.8932 16.79C65.5458 16.79 66.137 16.9315 66.6673 17.2144C67.1976 17.495 67.6188 17.91 67.931 18.4595C68.2427 19.0066 68.3988 19.6801 68.3988 20.4797ZM66.3858 20.4797C66.3858 20.0495 66.3283 19.6871 66.2134 19.3925C66.1004 19.0955 65.9329 18.871 65.7099 18.719C65.4893 18.5648 65.2173 18.4876 64.8932 18.4876C64.5695 18.4876 64.296 18.5648 64.073 18.719C63.8524 18.871 63.6849 19.0955 63.57 19.3925C63.4575 19.6871 63.401 20.0495 63.401 20.4797C63.401 20.9099 63.4575 21.2735 63.57 21.5705C63.6849 21.8651 63.8524 22.0895 64.073 22.2439C64.296 22.3959 64.5695 22.4719 64.8932 22.4719C65.2173 22.4719 65.4893 22.3959 65.7099 22.2439C65.9329 22.0895 66.1004 21.8651 66.2134 21.5705C66.3283 21.2735 66.3858 20.9099 66.3858 20.4797Z" fill="#020000"/>
<path d="M69.3042 24.0711V16.8882H72.4159C72.9506 16.8882 73.419 16.9852 73.8199 17.1793C74.2213 17.3733 74.5335 17.6528 74.7565 18.0175C74.979 18.3823 75.0905 18.8195 75.0905 19.3292C75.0905 19.8436 74.9756 20.2774 74.7456 20.6305C74.5182 20.9835 74.198 21.2501 73.7847 21.4301C73.3744 21.6102 72.8946 21.7002 72.3455 21.7002H70.4871V20.185H71.9511C72.181 20.185 72.3773 20.157 72.5388 20.1008C72.7034 20.0424 72.8287 19.95 72.9155 19.8238C73.0047 19.6975 73.0493 19.5327 73.0493 19.3292C73.0493 19.1235 73.0047 18.9563 72.9155 18.8277C72.8287 18.6968 72.7034 18.6009 72.5388 18.5401C72.3773 18.477 72.181 18.4454 71.9511 18.4454H71.2612V24.0711H69.3042ZM73.528 20.7743L75.3299 24.0711H73.2044L71.4441 20.7743H73.528Z" fill="#020000"/>
<path d="M75.7278 18.4594V16.8882H81.9928V18.4594H79.8247V24.0711H77.8959V18.4594H75.7278Z" fill="#020000"/>
<path d="M82.7292 24.0711V16.8882H85.8548C86.4039 16.8882 86.8648 16.9618 87.238 17.1091C87.6136 17.2564 87.8961 17.4645 88.0864 17.7334C88.2787 18.0023 88.3748 18.3191 88.3748 18.6839C88.3748 18.9481 88.3164 19.189 88.1989 19.4064C88.0839 19.6238 87.9219 19.8063 87.7132 19.9535C87.5041 20.0985 87.2603 20.199 86.9813 20.2551V20.3253C87.291 20.337 87.5725 20.4153 87.8257 20.5603C88.0795 20.7029 88.2812 20.9005 88.4313 21.153C88.5815 21.4032 88.6563 21.6978 88.6563 22.0369C88.6563 22.4297 88.5532 22.7792 88.3466 23.0856C88.1424 23.3918 87.8515 23.6327 87.4739 23.808C87.0963 23.9834 86.6458 24.0711 86.1225 24.0711H82.7292ZM84.6863 22.5139H85.6016C85.9297 22.5139 86.1765 22.4531 86.3405 22.3315C86.5045 22.2075 86.5868 22.0252 86.5868 21.7843C86.5868 21.616 86.5481 21.4734 86.4708 21.3565C86.3935 21.2395 86.283 21.1507 86.1398 21.0899C85.999 21.0291 85.8291 20.9987 85.6293 20.9987H84.6863V22.5139ZM84.6863 19.7922H85.4886C85.6601 19.7922 85.8112 19.7653 85.9426 19.7115C86.0744 19.6578 86.1765 19.5806 86.2488 19.48C86.3241 19.3772 86.3618 19.2521 86.3618 19.1048C86.3618 18.8827 86.282 18.7131 86.1225 18.5962C85.9629 18.477 85.7612 18.4174 85.5169 18.4174H84.6863V19.7922Z" fill="#020000"/>
<path d="M96.3329 20.4797C96.3329 21.2794 96.1768 21.9539 95.8651 22.5034C95.5529 23.0506 95.1316 23.4656 94.6014 23.7485C94.0711 24.0291 93.4799 24.1694 92.8272 24.1694C92.1706 24.1694 91.5769 24.0279 91.0466 23.745C90.5183 23.4598 90.0986 23.0436 89.7864 22.4964C89.4766 21.9469 89.322 21.2747 89.322 20.4797C89.322 19.6801 89.4766 19.0066 89.7864 18.4595C90.0986 17.91 90.5183 17.495 91.0466 17.2144C91.5769 16.9315 92.1706 16.79 92.8272 16.79C93.4799 16.79 94.0711 16.9315 94.6014 17.2144C95.1316 17.495 95.5529 17.91 95.8651 18.4595C96.1768 19.0066 96.3329 19.6801 96.3329 20.4797ZM94.3199 20.4797C94.3199 20.0495 94.2624 19.6871 94.1474 19.3925C94.0349 19.0955 93.8669 18.871 93.6439 18.719C93.4234 18.5648 93.1513 18.4876 92.8272 18.4876C92.5036 18.4876 92.2301 18.5648 92.0075 18.719C91.787 18.871 91.619 19.0955 91.504 19.3925C91.3915 19.6871 91.335 20.0495 91.335 20.4797C91.335 20.9099 91.3915 21.2735 91.504 21.5705C91.619 21.8651 91.787 22.0895 92.0075 22.2439C92.2301 22.3959 92.5036 22.4719 92.8272 22.4719C93.1513 22.4719 93.4234 22.3959 93.6439 22.2439C93.8669 22.0895 94.0349 21.8651 94.1474 21.5705C94.2624 21.2735 94.3199 20.9099 94.3199 20.4797Z" fill="#020000"/>
<path d="M104.221 20.4797C104.221 21.2794 104.065 21.9539 103.754 22.5034C103.441 23.0506 103.02 23.4656 102.49 23.7485C101.96 24.0291 101.368 24.1694 100.716 24.1694C100.059 24.1694 99.4653 24.0279 98.935 23.745C98.4068 23.4598 97.987 23.0436 97.6748 22.4964C97.3651 21.9469 97.2104 21.2747 97.2104 20.4797C97.2104 19.6801 97.3651 19.0066 97.6748 18.4595C97.987 17.91 98.4068 17.495 98.935 17.2144C99.4653 16.9315 100.059 16.79 100.716 16.79C101.368 16.79 101.96 16.9315 102.49 17.2144C103.02 17.495 103.441 17.91 103.754 18.4595C104.065 19.0066 104.221 19.6801 104.221 20.4797ZM102.208 20.4797C102.208 20.0495 102.151 19.6871 102.036 19.3925C101.923 19.0955 101.755 18.871 101.532 18.719C101.312 18.5648 101.04 18.4876 100.716 18.4876C100.392 18.4876 100.118 18.5648 99.896 18.719C99.6754 18.871 99.5074 19.0955 99.3925 19.3925C99.28 19.6871 99.2235 20.0495 99.2235 20.4797C99.2235 20.9099 99.28 21.2735 99.3925 21.5705C99.5074 21.8651 99.6754 22.0895 99.896 22.2439C100.118 22.3959 100.392 22.4719 100.716 22.4719C101.04 22.4719 101.312 22.3959 101.532 22.2439C101.755 22.0895 101.923 21.8651 102.036 21.5705C102.151 21.2735 102.208 20.9099 102.208 20.4797Z" fill="#020000"/>
<path d="M105.127 24.0711V16.8882H107.084V19.7922H107.183L109.351 16.8882H111.631L109.196 20.0868L111.688 24.0711H109.351L107.732 21.3775L107.084 22.2192V24.0711H105.127Z" fill="#020000"/>
<path d="M50.1824 33.9476H48.0708L50.4501 26.7646H53.1252L55.5044 33.9476H53.3928L51.8159 28.7427H51.7594L50.1824 33.9476ZM49.7885 31.1137H53.7585V32.5727H49.7885V31.1137Z" fill="#020000"/>
<path d="M62.4355 26.7646V33.9476H60.8026L58.1979 30.1737H58.1558V33.9476H56.1987V26.7646H57.8599L60.4225 30.5245H60.4785V26.7646H62.4355Z" fill="#020000"/>
<path d="M66.1351 33.9476H63.3613V26.7646H66.1068C66.8482 26.7646 67.489 26.9085 68.0287 27.196C68.5703 27.4813 68.9881 27.8928 69.2815 28.4306C69.5773 28.966 69.725 29.6079 69.725 30.3561C69.725 31.1043 69.5783 31.7473 69.2849 32.2851C68.9916 32.8206 68.5763 33.2321 68.0391 33.5197C67.5019 33.8049 66.867 33.9476 66.1351 33.9476ZM65.3184 32.2921H66.0647C66.421 32.2921 66.7248 32.2348 66.9761 32.1203C67.2293 32.0057 67.4221 31.8081 67.5534 31.5276C67.6872 31.247 67.7541 30.8565 67.7541 30.3561C67.7541 29.8557 67.6857 29.4652 67.5499 29.1846C67.4161 28.9041 67.2189 28.7065 66.9587 28.5919C66.7005 28.4773 66.3838 28.4201 66.0082 28.4201H65.3184V32.2921Z" fill="#020000"/>
<path d="M79.3346 29.4583H77.3493C77.3354 29.2947 77.2978 29.1462 77.2368 29.0129C77.1783 28.8796 77.0961 28.765 76.9905 28.6692C76.8869 28.5709 76.7615 28.4961 76.6139 28.4447C76.4662 28.3909 76.2982 28.364 76.1104 28.364C75.7818 28.364 75.5038 28.4435 75.2763 28.6026C75.0508 28.7615 74.8798 28.9895 74.7624 29.2865C74.6474 29.5834 74.5899 29.94 74.5899 30.3562C74.5899 30.7957 74.6484 31.164 74.7659 31.461C74.8858 31.7556 75.0582 31.9777 75.2832 32.1273C75.5087 32.2747 75.7798 32.3483 76.0965 32.3483C76.2769 32.3483 76.4389 32.3261 76.5821 32.2817C76.7254 32.2349 76.8498 32.1683 76.9553 32.0818C77.0609 31.9952 77.1466 31.8912 77.212 31.7696C77.2804 31.6457 77.326 31.5066 77.3493 31.3522L79.3346 31.3663C79.3113 31.6703 79.2255 31.98 79.0774 32.2957C78.9297 32.609 78.7196 32.8989 78.4475 33.1655C78.1779 33.4297 77.8434 33.6425 77.4444 33.8038C77.0455 33.9652 76.5821 34.0459 76.0544 34.0459C75.3923 34.0459 74.7986 33.9044 74.2733 33.6215C73.7499 33.3386 73.3356 32.9224 73.0309 32.3729C72.7281 31.8234 72.5769 31.1511 72.5769 30.3562C72.5769 29.5565 72.7315 28.8831 73.0413 28.336C73.351 27.7865 73.7688 27.3715 74.2941 27.0909C74.8199 26.808 75.4066 26.6665 76.0544 26.6665C76.5093 26.6665 76.9281 26.7285 77.3106 26.8524C77.6932 26.9763 78.0287 27.1575 78.3172 27.396C78.6061 27.6322 78.8385 27.9233 79.0144 28.2693C79.1904 28.6154 79.2969 29.0117 79.3346 29.4583Z" fill="#020000"/>
<path d="M81.8724 33.9476H79.7603L82.1395 26.7646H84.8146L87.1939 33.9476H85.0822L83.5053 28.7427H83.4488L81.8724 33.9476ZM81.4779 31.1137H85.4485V32.5727H81.4779V31.1137Z" fill="#020000"/>
<path d="M91.4935 29.0094C91.4746 28.7755 91.3864 28.5932 91.2293 28.4623C91.0747 28.3313 90.8388 28.2658 90.5221 28.2658C90.32 28.2658 90.1549 28.2904 90.0256 28.3395C89.8987 28.3863 89.8051 28.4506 89.7441 28.5324C89.6831 28.6142 89.6514 28.7077 89.6489 28.813C89.6445 28.8995 89.6594 28.9778 89.6945 29.0479C89.7322 29.1158 89.7912 29.1777 89.871 29.2339C89.9508 29.2876 90.0528 29.3367 90.1767 29.3812C90.3011 29.4256 90.4493 29.4653 90.6203 29.5004L91.212 29.6267C91.6104 29.7109 91.9519 29.8219 92.2359 29.9598C92.5198 30.0978 92.7522 30.2603 92.9331 30.4473C93.1135 30.6321 93.2463 30.8402 93.3306 31.0717C93.4173 31.3031 93.4619 31.5557 93.4644 31.8292C93.4619 32.3016 93.3435 32.7014 93.1091 33.0287C92.8742 33.3561 92.5386 33.6051 92.102 33.7758C91.6679 33.9465 91.1461 34.0318 90.536 34.0318C89.9096 34.0318 89.3625 33.9394 88.8957 33.7548C88.4313 33.57 88.07 33.286 87.8119 32.9025C87.5561 32.5167 87.4268 32.0233 87.4248 31.4224H89.2832C89.2946 31.6422 89.3496 31.8269 89.4482 31.9765C89.5469 32.1262 89.6856 32.2396 89.8635 32.3168C90.0444 32.3939 90.259 32.4325 90.5078 32.4325C90.7169 32.4325 90.8914 32.4068 91.0321 32.3553C91.1728 32.3039 91.2799 32.2326 91.3527 32.1414C91.4251 32.0502 91.4628 31.9462 91.4652 31.8292C91.4628 31.7193 91.4266 31.6235 91.3562 31.5417C91.2878 31.4575 91.1753 31.3827 91.0182 31.3172C90.8611 31.2494 90.6485 31.1863 90.3809 31.1278L89.6633 30.9735C89.025 30.8355 88.5215 30.6052 88.1533 30.2825C87.7871 29.9575 87.6052 29.5144 87.6077 28.9533C87.6052 28.4973 87.7271 28.0987 87.9734 27.7573C88.2222 27.4136 88.5661 27.1458 89.0047 26.9541C89.4463 26.7624 89.9517 26.6665 90.5221 26.6665C91.104 26.6665 91.607 26.7635 92.0317 26.9576C92.4564 27.1517 92.784 27.4253 93.0139 27.7783C93.2463 28.129 93.3633 28.5394 93.3658 29.0094H91.4935Z" fill="#020000"/>
<path d="M96.1658 26.7646V33.9476H94.2087V26.7646H96.1658Z" fill="#020000"/>
<path d="M103.33 26.7646V33.9476H101.697L99.0927 30.1737H99.05V33.9476H97.093V26.7646H98.7547L101.317 30.5245H101.373V26.7646H103.33Z" fill="#020000"/>
<path d="M111.239 30.3562C111.239 31.1558 111.083 31.8304 110.771 32.3799C110.459 32.927 110.037 33.3421 109.507 33.625C108.977 33.9056 108.386 34.0459 107.733 34.0459C107.076 34.0459 106.483 33.9044 105.952 33.6215C105.425 33.3362 105.004 32.92 104.692 32.3729C104.382 31.8234 104.228 31.1511 104.228 30.3562C104.228 29.5565 104.382 28.8831 104.692 28.336C105.004 27.7865 105.425 27.3715 105.952 27.0909C106.483 26.808 107.076 26.6665 107.733 26.6665C108.386 26.6665 108.977 26.808 109.507 27.0909C110.037 27.3715 110.459 27.7865 110.771 28.336C111.083 28.8831 111.239 29.5565 111.239 30.3562ZM109.226 30.3562C109.226 29.926 109.168 29.5635 109.053 29.2689C108.941 28.972 108.773 28.7475 108.55 28.5955C108.329 28.4412 108.057 28.364 107.733 28.364C107.409 28.364 107.136 28.4412 106.913 28.5955C106.693 28.7475 106.525 28.972 106.41 29.2689C106.297 29.5635 106.241 29.926 106.241 30.3562C106.241 30.7864 106.297 31.15 106.41 31.4469C106.525 31.7416 106.693 31.966 106.913 32.1203C107.136 32.2723 107.409 32.3483 107.733 32.3483C108.057 32.3483 108.329 32.2723 108.55 32.1203C108.773 31.966 108.941 31.7416 109.053 31.4469C109.168 31.15 109.226 30.7864 109.226 30.3562Z" fill="#020000"/>
</g>
<defs>
<clipPath id="clip0_473_21809">
<rect width="112" height="40" fill="white"/>
</clipPath>
</defs>
</svg>
