<svg width="50" height="40" viewBox="0 0 50 40" fill="none" xmlns="http://www.w3.org/2000/svg">
<g clip-path="url(#clip0_473_21789)">
<path d="M48.978 38.9658V39.0672H49.0714C49.092 39.0672 49.1097 39.0623 49.1225 39.0544C49.1343 39.0465 49.1411 39.0327 49.1411 39.016C49.1411 38.9992 49.1343 38.9865 49.1225 38.9786C49.1097 38.9697 49.092 38.9658 49.0714 38.9658H48.978ZM49.0723 38.8949C49.1205 38.8949 49.1578 38.9057 49.1844 38.9274C49.2109 38.949 49.2237 38.9786 49.2237 39.016C49.2237 39.0475 49.2138 39.0731 49.1923 39.0938C49.1716 39.1135 49.1421 39.1263 49.1028 39.1312L49.2267 39.2741H49.1303L49.0153 39.1322H48.978V39.2741H48.8975V38.8949H49.0723ZM49.0478 39.4051C49.092 39.4051 49.1333 39.3962 49.1706 39.3794C49.209 39.3627 49.2423 39.3401 49.2708 39.3115C49.2993 39.2829 49.322 39.2494 49.3386 39.2101C49.3544 39.1716 49.3632 39.1302 49.3632 39.0859C49.3632 39.0416 49.3544 39.0002 49.3386 38.9619C49.322 38.9234 49.2993 38.8889 49.2708 38.8604C49.2423 38.8318 49.209 38.8092 49.1706 38.7924C49.1333 38.7767 49.092 38.7688 49.0478 38.7688C49.0036 38.7688 48.9613 38.7767 48.923 38.7924C48.8836 38.8092 48.8493 38.8318 48.8208 38.8604C48.7923 38.8889 48.7696 38.9234 48.754 38.9619C48.7373 39.0002 48.7294 39.0416 48.7294 39.0859C48.7294 39.1302 48.7373 39.1716 48.754 39.2101C48.7696 39.2494 48.7923 39.2829 48.8208 39.3115C48.8493 39.3401 48.8836 39.3627 48.923 39.3794C48.9613 39.3962 49.0036 39.4051 49.0478 39.4051ZM49.0478 38.6772C49.1058 38.6772 49.1588 38.6881 49.21 38.7097C49.26 38.7304 49.3033 38.7599 49.3416 38.7974C49.379 38.8338 49.4085 38.8771 49.4301 38.9274C49.4516 38.9766 49.4625 39.0298 49.4625 39.0859C49.4625 39.1421 49.4516 39.1952 49.4301 39.2445C49.4085 39.2937 49.379 39.3371 49.3416 39.3745C49.3033 39.411 49.26 39.4405 49.21 39.4622C49.1588 39.4839 49.1058 39.4947 49.0478 39.4947C48.9888 39.4947 48.9348 39.4839 48.8836 39.4622C48.8326 39.4405 48.7883 39.411 48.751 39.3745C48.7136 39.3371 48.6842 39.2937 48.6626 39.2445C48.641 39.1952 48.6301 39.1421 48.6301 39.0859C48.6301 39.0298 48.641 38.9766 48.6626 38.9274C48.6842 38.8771 48.7136 38.8338 48.751 38.7974C48.7883 38.7599 48.8326 38.7304 48.8836 38.7097C48.9348 38.6881 48.9888 38.6772 49.0478 38.6772ZM10.7607 37.2166C10.7607 36.4936 11.2334 35.8997 12.0058 35.8997C12.7438 35.8997 13.242 36.468 13.242 37.2166C13.242 37.9651 12.7438 38.5334 12.0058 38.5334C11.2334 38.5334 10.7607 37.9395 10.7607 37.2166ZM14.0832 37.2166V35.1601H13.1909V35.6594C12.9079 35.2891 12.4785 35.0566 11.8947 35.0566C10.744 35.0566 9.84184 35.9607 9.84184 37.2166C9.84184 38.4733 10.744 39.3765 11.8947 39.3765C12.4785 39.3765 12.9079 39.144 13.1909 38.7737V39.273H14.0832V37.2166ZM44.2365 37.2166C44.2365 36.4936 44.7091 35.8997 45.4816 35.8997C46.2205 35.8997 46.7178 36.468 46.7178 37.2166C46.7178 37.9651 46.2205 38.5334 45.4816 38.5334C44.7091 38.5334 44.2365 37.9395 44.2365 37.2166ZM47.56 37.2166V33.5083H46.6667V35.6594C46.3836 35.2891 45.9542 35.0566 45.3705 35.0566C44.2198 35.0566 43.3176 35.9607 43.3176 37.2166C43.3176 38.4733 44.2198 39.3765 45.3705 39.3765C45.9542 39.3765 46.3836 39.144 46.6667 38.7737V39.273H47.56V37.2166ZM25.1593 35.8574C25.7341 35.8574 26.1036 36.2188 26.198 36.8551H24.0685C24.1638 36.2612 24.5235 35.8574 25.1593 35.8574ZM25.177 35.0566C23.9741 35.0566 23.1329 35.9342 23.1329 37.2166C23.1329 38.5246 24.0085 39.3765 25.2369 39.3765C25.855 39.3765 26.421 39.2219 26.9193 38.8003L26.482 38.1374C26.138 38.4122 25.6998 38.5679 25.288 38.5679C24.7131 38.5679 24.1893 38.3009 24.0606 37.5603H27.108C27.1168 37.449 27.1256 37.3367 27.1256 37.2166C27.1168 35.9342 26.3267 35.0566 25.177 35.0566ZM35.9513 37.2166C35.9513 36.4936 36.424 35.8997 37.1964 35.8997C37.9344 35.8997 38.4326 36.468 38.4326 37.2166C38.4326 37.9651 37.9344 38.5334 37.1964 38.5334C36.424 38.5334 35.9513 37.9395 35.9513 37.2166ZM39.2738 37.2166V35.1601H38.3815V35.6594C38.0975 35.2891 37.6691 35.0566 37.0853 35.0566C35.9346 35.0566 35.0325 35.9607 35.0325 37.2166C35.0325 38.4733 35.9346 39.3765 37.0853 39.3765C37.6691 39.3765 38.0975 39.144 38.3815 38.7737V39.273H39.2738V37.2166ZM30.912 37.2166C30.912 38.4644 31.7788 39.3765 33.1015 39.3765C33.7196 39.3765 34.1313 39.2386 34.5775 38.886L34.149 38.1631C33.8139 38.4044 33.4621 38.5334 33.0749 38.5334C32.3625 38.5246 31.8387 38.0084 31.8387 37.2166C31.8387 36.4247 32.3625 35.9085 33.0749 35.8997C33.4621 35.8997 33.8139 36.0287 34.149 36.2701L34.5775 35.5471C34.1313 35.1945 33.7196 35.0566 33.1015 35.0566C31.7788 35.0566 30.912 35.9687 30.912 37.2166ZM42.4165 35.0566C41.9016 35.0566 41.5665 35.2979 41.3345 35.6594V35.1601H40.4501V39.273H41.3434V36.9674C41.3434 36.2868 41.6353 35.9086 42.219 35.9086C42.3998 35.9086 42.5885 35.9342 42.7771 36.012L43.0523 35.1689C42.8548 35.091 42.5973 35.0566 42.4165 35.0566ZM18.4965 35.487C18.0671 35.2034 17.4755 35.0566 16.823 35.0566C15.7833 35.0566 15.1141 35.556 15.1141 36.3734C15.1141 37.0442 15.6123 37.4579 16.5301 37.5869L16.9517 37.647C17.4411 37.7159 17.672 37.8449 17.672 38.0774C17.672 38.3955 17.3458 38.5767 16.7365 38.5767C16.1184 38.5767 15.6722 38.3787 15.3715 38.1463L14.951 38.8427C15.4403 39.2041 16.0585 39.3765 16.7276 39.3765C17.9128 39.3765 18.5997 38.8171 18.5997 38.0341C18.5997 37.3111 18.0592 36.9329 17.166 36.8039L16.7453 36.7428C16.3591 36.6916 16.0496 36.6147 16.0496 36.339C16.0496 36.0376 16.3415 35.8574 16.8308 35.8574C17.3546 35.8574 17.8617 36.0553 18.1103 36.2099L18.4965 35.487ZM30.0099 35.0566C29.495 35.0566 29.1598 35.2979 28.9289 35.6594V35.1601H28.0445V39.273H28.9368V36.9674C28.9368 36.2868 29.2286 35.9086 29.8123 35.9086C29.9931 35.9086 30.1818 35.9342 30.3705 36.012L30.6457 35.1689C30.4482 35.091 30.1907 35.0566 30.0099 35.0566ZM22.3949 35.1601H20.9356V33.9121H20.0335V35.1601H19.2011V35.9775H20.0335V37.8538C20.0335 38.8082 20.403 39.3765 21.4584 39.3765C21.8456 39.3765 22.2917 39.2564 22.5748 39.0584L22.3173 38.2921C22.051 38.4467 21.7591 38.5246 21.5272 38.5246C21.081 38.5246 20.9356 38.2487 20.9356 37.8361V35.9775H22.3949V35.1601ZM9.05277 39.273V36.6916C9.05277 35.7195 8.43465 35.0655 7.43815 35.0566C6.9144 35.0477 6.3739 35.2112 5.99557 35.7884C5.71255 35.3324 5.2664 35.0566 4.63944 35.0566C4.20115 35.0566 3.77269 35.1856 3.43759 35.6672V35.1601H2.54431V39.273H3.44545V36.993C3.44545 36.2789 3.8405 35.8997 4.45076 35.8997C5.04332 35.8997 5.34305 36.2868 5.34305 36.9841V39.273H6.24517V36.993C6.24517 36.2789 6.6569 35.8997 7.24952 35.8997C7.85877 35.8997 8.15065 36.2868 8.15065 36.9841V39.273H9.05277Z" fill="#231F20"/>
<path d="M49.5281 25.5945V24.9937H49.3719L49.1911 25.4063L49.0113 24.9937H48.854V25.5945H48.9651V25.1414L49.1341 25.5324H49.2491L49.4181 25.1404V25.5945H49.5281ZM48.5366 25.5945V25.0961H48.7371V24.9947H48.2261V25.0961H48.4266V25.5945H48.5366Z" fill="#F79410"/>
<path d="M31.761 28.1791H18.2374V3.81982H31.761V28.1791Z" fill="#FF5F00"/>
<path d="M19.1038 15.9973C19.1038 11.0559 21.4121 6.65427 25.0069 3.81768C22.3781 1.74342 19.0605 0.505371 15.455 0.505371C6.91919 0.505371 0 7.44121 0 15.9973C0 24.5534 6.91919 31.4892 15.455 31.4892C19.0605 31.4892 22.3781 30.2512 25.0069 28.1769C21.4121 25.3403 19.1038 20.9387 19.1038 15.9973Z" fill="#EB001B"/>
<path d="M50.0001 15.9973C50.0001 24.5534 43.0808 31.4892 34.5451 31.4892C30.9395 31.4892 27.6219 30.2512 24.9922 28.1769C28.5879 25.3403 30.8963 20.9387 30.8963 15.9973C30.8963 11.0559 28.5879 6.65427 24.9922 3.81768C27.6219 1.74342 30.9395 0.505371 34.5451 0.505371C43.0808 0.505371 50.0001 7.44121 50.0001 15.9973Z" fill="#F79E1B"/>
</g>
<defs>
<clipPath id="clip0_473_21789">
<rect width="50" height="40" fill="white"/>
</clipPath>
</defs>
</svg>
