<svg width="130" height="40" viewBox="0 0 130 40" fill="none" xmlns="http://www.w3.org/2000/svg">
<g clip-path="url(#clip0_473_21783)">
<path d="M0 0.63158C0 1.15789 0.456757 1.40351 2.03784 1.7193C4.6027 2.31579 9.38108 4.10526 10.6459 4.98246C11.173 5.36842 11.8054 6.10526 12.0865 6.59649C12.3324 7.12281 14.4054 14.8421 16.7243 23.7895L20.9054 40L26.4919 39.9298L32.0784 39.8246L40.3 20.3509C44.7973 9.64912 48.4865 0.771931 48.4865 0.596493C48.4865 0.456139 46.0622 0.350876 43.1459 0.350876H37.7703L32.5 13.6842C29.6189 21.0175 27.1595 27.0175 27.0541 27.0175C26.9486 27.0175 25.8595 21.6842 24.6649 15.1579C23.4 8.45614 22.1703 2.87719 21.8541 2.31579C21.5378 1.75439 20.6946 1.01754 20.027 0.666668C18.9378 0.0701752 17.9189 0 9.41622 0C0.491892 0 0 0.0350876 0 0.63158Z" fill="#1A1F71"/>
<path d="M53.2298 0.421051C53.1244 0.666668 51.1919 9.68421 48.9082 20.4211L44.7622 40H49.9622C52.8082 40 55.1622 39.9298 55.1622 39.8596C55.1622 39.6491 63.2082 1.85965 63.4892 0.771931L63.6649 0H58.5352C54.7406 0 53.3352 0.105263 53.2298 0.421051Z" fill="#1A1F71"/>
<path d="M76.7703 0.491169C72.7297 1.78941 69.3216 4.45608 67.8108 7.5438C67.1784 8.80696 66.8973 10.035 66.827 12.035C66.6865 14.421 66.7919 14.9824 67.6 16.6666C68.7243 18.9122 70.7973 20.842 73.854 22.4561C81.2324 26.3157 82.6027 28.1052 80.0027 30.7017C77.7892 32.9122 72.3784 33.0526 66.7919 31.0526C65.527 30.5964 64.4378 30.2806 64.3324 30.3508C64.1567 30.5613 62.5757 37.5438 62.5405 38.2806C62.5405 38.7017 63.173 39.0526 64.754 39.4736C66.5459 39.9298 68.2324 40.035 74.3108 39.9298L81.6892 39.8245L84.0432 38.6666C88.8919 36.3157 91.773 32.0701 91.8081 27.2631C91.8432 22.7017 89.7 19.7543 84.2892 16.807C80.0027 14.4561 78.2459 13.2631 77.6486 12.1754C77.1919 11.3333 77.1919 11.1227 77.6486 10.2456C79.0189 7.78941 84.4649 7.12275 89.454 8.80696L91.9838 9.68415L92.7919 5.78941C93.2486 3.68415 93.6351 1.78941 93.6351 1.57889C93.6351 1.40345 92.7567 0.982395 91.7027 0.631519C89.2784 -0.105324 79.0189 -0.210587 76.7703 0.491169Z" fill="#1A1F71"/>
<path d="M109.446 0.491295C108.884 0.736912 108.146 1.26323 107.83 1.61411C107.478 2.00007 103.965 10.1053 99.9594 19.6492C95.954 29.1931 92.4054 37.6843 92.054 38.4913L91.3865 40.0001H96.7622H102.173L103.157 37.1229L104.176 34.2106L110.886 34.1053L117.562 34.0352L118.265 36.9123L118.968 39.8246L123.781 39.9299L128.63 40.0352L128.384 39.0527C128.243 38.5264 126.346 29.5439 124.203 19.1229L120.268 0.175507L115.384 0.105331C111.905 0.0351562 110.184 0.140419 109.446 0.491295ZM114.33 18.4211C115.068 21.8948 115.7 25.0176 115.805 25.3334C115.981 25.8948 115.63 25.965 111.765 25.965C109.411 25.965 107.514 25.8597 107.514 25.7545C107.514 24.9825 112.608 11.6141 112.784 11.8246C112.959 11.965 113.627 14.9474 114.33 18.4211Z" fill="#1A1F71"/>
</g>
<defs>
<clipPath id="clip0_473_21783">
<rect width="130" height="40" fill="white"/>
</clipPath>
</defs>
</svg>
