<svg width="116" height="40" viewBox="0 0 116 40" fill="none" xmlns="http://www.w3.org/2000/svg">
<g clip-path="url(#clip0_473_21800)">
<path d="M23.4892 0C23.4892 0 22.984 0.0631262 22.7315 0.126252C21.658 0.126252 18.0588 1.07314 16.796 1.64128C16.6697 1.64128 16.354 1.83066 16.0383 1.95691C15.2806 2.27254 13.1969 3.21943 12.8812 3.47193C12.7549 3.59819 12.5023 3.72444 12.3129 3.72444C12.1234 3.72444 11.9971 3.85069 11.9971 3.91381C11.9971 3.97696 11.934 4.04008 11.8077 4.04008C11.6814 4.04008 11.492 4.22946 11.3026 4.29258C11.1131 4.41885 10.8606 4.54508 10.7343 4.60819C10.608 4.60819 10.3554 4.86069 10.166 4.98696C9.97658 5.11323 9.78716 5.23946 9.724 5.23946C9.47142 5.23946 6.06171 7.70138 5.11456 8.58515C4.35686 9.27954 2.90457 10.8577 2.90457 10.984C2.90457 10.984 2.77829 11.1733 2.652 11.2996C2.33629 11.6783 1.38914 13.1302 1.13657 13.6984C1.01029 13.9509 0.757715 14.4559 0.631429 14.7715C0.189429 15.7815 0 16.9178 0 18.2435C0.0631429 19.5691 0.378857 20.2635 1.26286 21.1472C2.21 22.0942 3.22029 22.4729 4.79885 22.5992C5.8723 22.5992 6.69316 22.5992 7.76657 22.2835C8.14544 22.1573 8.58743 22.0942 8.77684 22.031C9.02942 22.031 9.282 21.9048 9.34513 21.8416C9.59771 21.7154 10.9237 21.0841 10.9869 21.0841C11.1763 21.0841 13.3863 19.6953 15.47 18.3697C16.8592 17.4859 18.0588 16.6653 18.122 16.6022C18.2483 16.539 18.8797 16.1603 19.5743 15.7184C20.2689 15.3397 21.0897 14.8347 21.4686 14.6453C21.8474 14.4559 22.2895 14.2034 22.6052 14.0771C22.8577 13.9509 23.3629 13.6984 23.7417 13.5721C24.1206 13.4458 24.4994 13.2565 24.6889 13.1933C24.8783 13.1302 25.1309 13.004 25.2572 12.9408C25.6992 12.7515 26.5832 12.6252 27.5303 12.5621C29.4877 12.4358 30.8769 13.3196 31.5715 15.1503C31.7609 15.5922 31.7609 15.9709 31.7609 17.2334C31.7609 18.7485 31.6346 19.6322 31.1926 20.6422C31.1294 20.8316 31.0032 21.1472 30.94 21.2735C30.4349 22.536 29.2983 24.3667 28.0986 26.008C26.8989 27.5861 24.3731 30.2374 22.6683 31.6262C22.1 32.1312 21.4686 32.6362 21.216 32.8256C20.774 33.2043 20.2689 33.5831 19.7006 33.9618C19.448 34.0881 19.0692 34.3406 18.8797 34.53C18.2483 34.9718 16.4803 35.9188 15.47 36.2975C15.1543 36.4238 14.7754 36.6132 14.586 36.6763C14.3966 36.7394 14.144 36.8025 14.0177 36.8025C13.8914 36.8025 13.6389 36.8025 13.4494 36.9288C12.7549 37.1813 12.0603 36.6763 12.0603 35.9819C12.0603 35.0981 12.5023 34.5931 15.0911 32.0049C17.9326 29.2274 18.1851 28.7855 18.1851 27.7123C18.1851 26.6392 17.68 25.8817 16.4803 25.3136C15.9752 25.0611 15.7857 24.9979 14.9017 24.9979C13.8914 24.9979 13.26 25.1242 12.5023 25.6292C12.3129 25.7555 12.0603 25.8817 11.934 25.9448C11.8077 26.008 11.6183 26.1342 11.6183 26.1342C11.6183 26.1342 11.3657 26.3236 11.1131 26.513C10.5449 26.9548 9.59771 27.9649 9.02942 28.6593C8.65059 29.1643 8.33485 29.6693 7.70344 30.8687C7.13516 31.8787 6.63 33.8356 6.63 34.9718C6.63 37.2444 7.82973 39.075 9.66087 39.58C10.2292 39.7696 12.4391 39.7696 13.1969 39.58C13.9546 39.3908 15.9752 38.8227 16.1015 38.6962C16.1646 38.6962 16.2909 38.57 16.354 38.57C16.6066 38.57 19.7637 36.9919 20.8371 36.2975C21.0897 36.1081 21.3423 35.9819 21.4686 35.9188C21.5949 35.9188 22.0369 35.54 22.6052 35.2244C23.1103 34.9087 23.5523 34.5931 23.6154 34.5931C23.6154 34.5931 23.9943 34.2775 24.4363 34.025C24.8783 33.7093 25.3203 33.3937 25.5097 33.2675C25.6992 33.1412 26.2043 32.7625 26.6463 32.3837C29.4246 30.1743 31.824 27.8386 33.2763 26.008C33.5289 25.6923 33.7183 25.4398 33.7814 25.4398C33.8446 25.3767 34.6023 24.3667 35.1075 23.546C35.36 23.2304 35.6757 22.6623 35.8652 22.2835C36.0546 21.9048 36.3703 21.3998 36.4966 21.1472C36.6229 20.8947 36.9386 20.2003 37.1911 19.6322C37.4437 19.0641 37.6332 18.496 37.6963 18.3697C38.012 17.6122 38.454 15.6553 38.6434 14.2665C38.8958 12.6883 38.6434 10.1002 38.2646 8.71138C38.0752 8.14327 38.012 8.017 37.6332 7.19638C36.8123 5.36573 35.4232 3.72444 33.9077 2.6513C33.7183 2.52505 33.4026 2.27254 33.3394 2.20942C32.9606 1.89378 31.0032 1.01002 29.8666 0.694388C29.2352 0.505008 28.3512 0.31563 27.846 0.252505C26.7094 0.126252 23.9311 0 23.6154 0.126252L23.4892 0Z" fill="#FF0000"/>
<path d="M112.394 8.14356C112.394 8.14356 111.889 8.26983 111.384 8.33295C110.816 8.39606 109.932 8.58545 109.427 8.64856L108.417 8.83795V17.865C108.417 27.6495 108.417 27.2708 108.985 28.4702C109.174 28.9121 109.427 29.2277 109.869 29.6064C110.879 30.5533 111.889 30.8689 113.973 30.8689C115.741 30.8689 115.678 30.9321 115.615 29.2908V28.0914L114.857 28.0283C113.531 27.902 112.836 27.397 112.71 26.2608C112.71 25.9451 112.647 21.7157 112.71 16.9181C112.71 8.64856 112.71 7.82795 112.458 8.08045L112.394 8.14356Z" fill="#FF0000"/>
<path d="M85.243 8.39567C83.096 8.71129 82.3384 8.83756 82.2752 8.96379C82.212 9.0269 82.212 12.1832 82.2752 18.1802C82.2752 26.5129 82.3384 27.2704 82.5276 27.7122C82.9068 28.6591 83.096 28.9748 83.6013 29.4798C84.6114 30.4898 85.9375 30.9317 88.0844 30.9317C89.2841 30.9317 89.4733 30.9317 89.5366 30.7423C89.663 30.5529 89.663 28.8485 89.5998 28.4697C89.5998 28.2172 89.4733 28.2173 88.7789 28.1541C87.8316 28.1541 87.3268 27.7754 86.8847 27.081L86.6319 26.6391V21.589C86.6319 17.8014 86.6319 16.4758 86.6319 16.3496C86.6319 16.2233 87.074 16.2233 88.0844 16.2233C89.7262 16.2233 89.5366 16.3496 89.5366 14.5189V13.2564H88.1476C87.39 13.2564 86.6951 13.1933 86.6319 13.1301C86.5059 13.1301 86.5059 12.4989 86.5059 10.6682V8.33252H86.3163C86.3163 8.33252 85.7482 8.39567 85.243 8.45879V8.39567Z" fill="#FF0000"/>
<path d="M51.272 12.8145C50.5143 12.8776 48.7462 13.3195 48.2413 13.5088C48.1149 13.5088 47.9253 13.6351 47.7993 13.6351C47.3573 13.7613 45.9048 14.4557 45.9048 14.582C45.9048 14.582 45.968 14.8345 46.0944 15.087C46.7256 16.5389 46.9784 17.0439 47.0416 17.0439C47.0416 17.0439 47.1677 17.0439 47.2941 16.9808C47.7993 16.7283 48.4306 16.4758 48.8726 16.3495C49.1882 16.2864 49.5042 16.1601 49.6302 16.097C50.1987 15.9076 51.6508 15.7814 52.3456 15.9076C53.6714 16.097 54.1766 16.7283 54.2398 18.3064C54.2398 19.1902 54.2398 19.1902 54.0502 19.2533C53.9242 19.2533 53.0401 19.3164 52.0296 19.3164C49.6934 19.3164 48.999 19.4427 47.4833 20.2002C46.2208 20.8315 45.2103 22.0308 44.7683 23.5459C44.5158 24.3665 44.579 25.8815 44.7683 26.7022C45.6523 29.3535 47.7361 30.9317 50.6407 31.0579C53.2925 31.1842 56.0079 30.4266 57.7757 28.9747L58.4073 28.4697V23.2934C58.4073 17.2964 58.4073 17.107 57.7125 15.592C57.3968 14.8976 56.3236 13.8876 55.6287 13.572C55.3131 13.4457 54.9975 13.2563 54.8711 13.2563C54.1134 12.9407 52.2824 12.6882 51.1456 12.8145H51.272ZM54.1766 22.2834C54.1766 22.2834 54.303 23.5459 54.303 24.9347C54.303 27.7122 54.303 27.5228 53.6082 27.9016C53.3557 28.0278 53.0401 28.091 52.0928 28.091H50.8931L50.3879 27.7753C50.3879 27.7753 49.8199 27.3335 49.6934 27.1441C48.999 26.0709 48.999 24.1772 49.7566 23.2934C50.0091 22.9778 50.8299 22.4096 51.0195 22.4096C51.1456 22.4096 51.2088 22.4096 51.272 22.3465C51.3984 22.2202 51.8404 22.1571 52.9769 22.1571C53.7978 22.1571 54.0502 22.1571 54.1134 22.2834H54.1766Z" fill="#FF0000"/>
<path d="M75.7083 13.0039C73.751 13.4458 72.1724 14.2664 70.6571 15.7183L70.2151 16.0971V30.553C70.2151 30.553 70.3411 30.7423 72.3621 30.6792H74.5086V23.7985V16.9808L74.8875 16.6652C75.3295 16.2865 75.5191 16.2233 76.0872 16.034C76.782 15.7815 77.7921 15.7183 78.6129 15.7815C78.9918 15.7815 79.3706 15.7815 79.4338 15.7815C79.497 15.7815 79.6866 15.4027 79.8126 15.024C79.9391 14.6452 80.1915 14.1402 80.3179 13.8877C80.6335 13.2564 80.6335 13.1302 80.1915 13.0039C80.0022 13.0039 79.6234 12.8777 79.3706 12.8145C78.6762 12.6252 76.5292 12.6883 75.6451 12.8777L75.7083 13.0039Z" fill="#FF0000"/>
<path d="M97.0509 13.0673C96.7348 13.0673 96.4192 13.1935 96.356 13.2566C96.356 13.2566 96.23 13.3198 96.1036 13.3198C95.9772 13.3198 95.6616 13.446 95.3459 13.6354C94.5883 14.0142 93.4514 15.0873 92.9465 15.8448C92.5045 16.5392 91.9993 17.5492 91.9361 17.928C91.9361 18.0542 91.8097 18.3068 91.8097 18.433C91.8097 18.5593 91.6836 18.938 91.5572 19.3799C91.3048 20.453 91.3048 23.8618 91.5572 24.8087C91.8097 25.6925 92.3149 27.0813 92.4413 27.0813C92.4413 27.0813 92.5045 27.0813 92.5045 27.2075C92.5045 27.5863 93.641 29.0382 94.5251 29.7326C94.9039 30.0482 95.7248 30.427 96.2928 30.6795C96.9245 30.932 98.3766 31.1213 99.0714 31.1213C100.46 31.1213 102.986 30.5532 103.807 29.9851C103.996 29.8588 104.249 29.7326 104.375 29.6695C104.691 29.6063 105.322 29.1644 105.386 29.0382C105.449 28.9119 104.375 26.7025 104.249 26.7025C104.186 26.7025 103.996 26.7656 103.87 26.8919C103.744 27.0181 103.555 27.0813 103.491 27.0813C103.428 27.0813 103.302 27.0813 103.175 27.2075C103.049 27.2706 102.544 27.46 102.039 27.6494C101.155 27.965 101.029 27.965 99.7659 27.965C98.5662 27.965 98.3134 27.965 97.9345 27.7756C96.5456 27.1444 95.788 25.44 95.788 23.2306C95.788 22.7256 95.788 22.3468 95.788 22.3468C95.788 22.3468 97.9977 22.3468 100.587 22.2837H105.386V21.2737C105.386 19.3799 104.817 16.7917 104.375 16.1605C104.375 16.1605 104.186 15.8448 104.059 15.5923C103.555 14.5192 102.418 13.6354 101.092 13.1935C100.145 12.8779 98.3766 12.7516 97.0509 12.941V13.0673ZM99.1342 16.1605C99.5763 16.2867 100.397 16.9811 100.397 17.1705C100.397 17.1705 100.46 17.423 100.524 17.5492C100.776 17.9911 100.902 19.443 100.776 19.6324C100.65 19.7586 100.271 19.7586 98.3134 19.7586H95.9772V19.5061C95.788 19.0011 96.1036 17.6755 96.5456 17.1705C96.9877 16.6023 97.3665 16.2867 97.9345 16.1605C98.2506 16.0973 98.5662 16.0342 98.6294 16.0342C98.6294 16.0342 98.945 16.0973 99.1342 16.1605Z" fill="#FF0000"/>
<path d="M63.2694 6.12327C62.5118 6.502 62.3222 6.69139 62.0065 7.19639C61.6909 7.70142 61.6909 7.70142 61.6909 8.71142V9.72146L62.0697 10.2265C62.5118 10.7946 62.8274 11.0471 63.4587 11.2365C64.3427 11.5521 65.1004 11.4258 65.9845 10.8577C67.0578 10.1633 67.3738 8.45892 66.7421 7.25954C66.4897 6.81765 66.3001 6.62827 65.732 6.2495C65.2268 5.93389 63.8375 5.80762 63.3326 6.12327H63.2694Z" fill="#FF0000"/>
<path d="M65.6686 13.1937C65.6686 13.1937 65.1002 13.3199 64.6582 13.383C64.2793 13.383 63.5849 13.5093 63.1428 13.5724C62.7008 13.5724 62.2588 13.6987 62.2588 13.7618C62.1956 13.8249 62.1324 30.4902 62.2588 30.6165C62.2588 30.6165 63.1428 30.6796 64.3425 30.6796C66.3631 30.6796 66.3631 30.6796 66.4263 30.4271C66.4263 30.3008 66.4263 26.3239 66.4263 21.6525C66.4263 13.1305 66.4263 13.0674 66.1735 13.0674C66.0475 13.0674 65.8579 13.0674 65.6686 13.1305V13.1937Z" fill="#FF0000"/>
</g>
<defs>
<clipPath id="clip0_473_21800">
<rect width="116" height="40" fill="white"/>
</clipPath>
</defs>
</svg>
