<svg width="40" height="40" viewBox="0 0 40 40" fill="none" xmlns="http://www.w3.org/2000/svg">
<g clip-path="url(#clip0_473_21797)">
<path d="M19.9675 39.54C30.7772 39.54 39.5402 30.777 39.5402 19.9672C39.5402 9.15753 30.7772 0.394531 19.9675 0.394531C9.15778 0.394531 0.394775 9.15753 0.394775 19.9672C0.394775 30.777 9.15778 39.54 19.9675 39.54Z" fill="#22B24C" stroke="white" stroke-width="3"/>
<path fill-rule="evenodd" clip-rule="evenodd" d="M34.0152 23.8115H35.0626V15.7896H34.5415C33.9602 15.7896 33.4889 16.2608 33.4889 16.8422V23.2852C33.4889 23.5758 33.7247 23.8115 34.0152 23.8115ZM33.1937 21.4946C33.2218 21.3677 33.2358 21.2009 33.2358 20.9943C33.2358 20.135 32.9534 19.4189 32.3884 18.8461C31.82 18.2804 31.1147 17.9976 30.2726 17.9976C29.42 17.9976 28.7129 18.2804 28.1516 18.8461C27.5866 19.4189 27.3042 20.1259 27.3042 20.9671C27.3042 21.8119 27.5866 22.5207 28.1516 23.0936C28.7129 23.6628 29.42 23.9474 30.2726 23.9474C30.9429 23.9474 31.5376 23.7643 32.0568 23.3982C32.5692 23.0319 32.9252 22.5533 33.1252 21.9624H31.4568C31.3587 22.1291 31.206 22.2651 30.9989 22.3703C30.7918 22.4754 30.5602 22.528 30.3042 22.528C29.9813 22.528 29.7023 22.4355 29.4673 22.2506C29.2358 22.0657 29.076 21.8137 28.9884 21.4946H33.1937ZM30.2726 19.4008C30.5779 19.4008 30.8444 19.4914 31.0726 19.6727C31.3042 19.854 31.4602 20.1006 31.541 20.4124H28.9989C29.0937 20.0969 29.2534 19.8504 29.4779 19.6727C29.7023 19.4914 29.9673 19.4008 30.2726 19.4008ZM7.03155 22.1853L10.5473 17.3613V16.1267H4.77892V17.7529H8.24734L4.73682 22.5769V23.8115H10.621V22.6559C10.7143 22.8099 10.8226 22.9558 10.9457 23.0936C11.4509 23.6628 12.0807 23.9474 12.8351 23.9474C13.4983 23.9402 14.0527 23.6864 14.4983 23.186V23.8115H14.9652L16.5389 23.8115V20.6136C16.5389 20.3018 16.6336 20.0498 16.8231 19.8576C17.0161 19.6655 17.2652 19.5694 17.5705 19.5694C17.8582 19.5694 18.088 19.6637 18.2599 19.8522C18.4354 20.0407 18.5231 20.2873 18.5231 20.5918V23.8115H20.0968V20.6136C20.0968 20.3018 20.1915 20.0498 20.381 19.8576C20.574 19.6655 20.8231 19.5694 21.1284 19.5694C21.4126 19.5694 21.6407 19.6637 21.8126 19.8522C21.988 20.0407 22.0757 20.2873 22.0757 20.5918V23.8115H23.6494V20.1024C23.6494 19.4715 23.467 18.9621 23.1021 18.5741C22.7407 18.1898 22.2599 17.9976 21.6599 17.9976C20.8705 17.9976 20.2617 18.3239 19.8336 18.9766C19.4757 18.3239 18.8986 17.9976 18.1021 17.9976C17.4705 17.9976 16.9494 18.2424 16.5389 18.7318V18.1336H16.072L14.4983 18.1336V18.7536C14.0527 18.2496 13.4983 17.9976 12.8351 17.9976C12.0807 17.9976 11.4509 18.2804 10.9457 18.846C10.4369 19.4153 10.1825 20.1223 10.1825 20.9671C10.1825 21.4115 10.2523 21.8176 10.3919 22.1853H7.03155ZM14.1193 21.9732C13.8597 22.2415 13.5369 22.3757 13.1509 22.3757C12.7685 22.3757 12.4509 22.2415 12.1983 21.9732C11.9422 21.7086 11.8141 21.3732 11.8141 20.9671C11.8141 20.5646 11.9422 20.2311 12.1983 19.9664C12.4509 19.7017 12.7685 19.5694 13.1509 19.5694C13.5369 19.5694 13.8579 19.7017 14.1141 19.9664C14.3702 20.2311 14.4983 20.5646 14.4983 20.9671C14.4983 21.3696 14.372 21.7049 14.1193 21.9732ZM26.3494 18.1336H27.1494C27.2947 18.1336 27.4126 18.2514 27.4126 18.3967V19.3497C27.4126 19.4951 27.2947 19.6129 27.1494 19.6129H26.3494V23.8114H25.8284C25.2471 23.8114 24.7758 23.3402 24.7758 22.7588V19.6129H24.0337C23.8883 19.6129 23.7705 19.4951 23.7705 19.3497V18.3967C23.7705 18.2514 23.8883 18.1336 24.0337 18.1336H24.7758V17.2372C24.7758 16.9916 24.9456 16.7787 25.1851 16.7241L26.3494 16.4585V18.1336Z" fill="white"/>
</g>
<defs>
<clipPath id="clip0_473_21797">
<rect width="40" height="40" fill="white"/>
</clipPath>
</defs>
</svg>
